<svg xmlns="http://www.w3.org/2000/svg" version="1.1" xmlns:xlink="http://www.w3.org/1999/xlink" xmlns:svgjs="http://svgjs.com/svgjs" width="1920" height="1080" preserveAspectRatio="none" viewBox="0 0 1920 1080">
    <g mask="url(&quot;#SvgjsMask1033&quot;)" fill="none">
        <rect width="1920" height="1080" x="0" y="0" fill="rgba(251, 202, 213, 1)"></rect>
        <path d="M0,896.245C167.396,920.504,321.88,813.454,467.784,727.886C619.075,639.158,794.426,555.373,859.169,392.37C923.334,230.822,839.382,54.501,802.735,-115.416C768.704,-273.204,772.324,-457.219,652.586,-565.469C534.46,-672.262,346.944,-616.494,195.17,-664.69C38.475,-714.449,-86.697,-869.22,-250.215,-852.153C-418.631,-834.575,-565.655,-713.15,-663.645,-575.052C-757.534,-442.733,-764.511,-273.39,-775.734,-111.534C-786.231,39.859,-798.826,198.366,-726.524,331.793C-656.136,461.688,-504.742,513.216,-388.075,603.857C-257.531,705.28,-163.604,872.536,0,896.245" fill="#f9a8ba"></path>
        <path d="M1920 1938.443C2090.406 1968.239 2281.492 1962.149 2422.7200000000003 1862.2469999999998 2562.577 1763.315 2616.503 1583.127 2657.451 1416.782 2693.292 1271.181 2652.411 1125.862 2640.788 976.366 2628.2110000000002 814.602 2697.647 620.668 2586.373 502.58399999999995 2474.494 383.85900000000004 2277.352 426.274 2114.438 417.807 1985.625 411.11300000000006 1862.071 424.999 1737.502 458.46799999999996 1610.155 492.683 1489.013 536.426 1382.683 614.412 1253.519 709.145 1102.3690000000001 802.0260000000001 1058.8809999999999 956.19 1014.223 1114.502 1066.306 1290.403 1152.467 1430.521 1233.967 1563.058 1389.097 1618.339 1518.849 1704.203 1650.6480000000001 1791.422 1764.317 1911.221 1920 1938.443" fill="#feecf0"></path>
    </g>
    <defs>
        <mask id="SvgjsMask1033">
            <rect width="1920" height="1080" fill="#ffffff"></rect>
        </mask>
    </defs>
</svg>